<?xml version="1.0" encoding="UTF-8" standalone="no"?>
<!-- Created with Inkscape (http://www.inkscape.org/) -->

<svg
   xmlns:dc="http://purl.org/dc/elements/1.1/"
   xmlns:cc="http://creativecommons.org/ns#"
   xmlns:rdf="http://www.w3.org/1999/02/22-rdf-syntax-ns#"
   xmlns:svg="http://www.w3.org/2000/svg"
   xmlns="http://www.w3.org/2000/svg"
   xmlns:sodipodi="http://sodipodi.sourceforge.net/DTD/sodipodi-0.dtd"
   xmlns:inkscape="http://www.inkscape.org/namespaces/inkscape"
   id="svg4874"
   height="31.795111"
   viewBox="0 0 80.000206 31.795111"
   width="80.000206"
   version="1.1"
   inkscape:version="0.91 r13725"
   sodipodi:docname="tool.svg">
  <defs
     id="defs10" />
  <sodipodi:namedview
     pagecolor="#ffffff"
     bordercolor="#666666"
     borderopacity="1"
     objecttolerance="10"
     gridtolerance="10"
     guidetolerance="10"
     inkscape:pageopacity="0"
     inkscape:pageshadow="2"
     inkscape:window-width="3070"
     inkscape:window-height="1752"
     id="namedview8"
     showgrid="false"
     fit-margin-top="0"
     fit-margin-left="0"
     fit-margin-right="0"
     fit-margin-bottom="0"
     inkscape:zoom="2.4583333"
     inkscape:cx="39.9998"
     inkscape:cy="39.99979"
     inkscape:window-x="130"
     inkscape:window-y="48"
     inkscape:window-maximized="1"
     inkscape:current-layer="layer1" />
  <metadata
     id="metadata4879">
    <rdf:RDF>
      <cc:Work
         rdf:about="">
        <dc:format>image/svg+xml</dc:format>
        <dc:type
           rdf:resource="http://purl.org/dc/dcmitype/StillImage" />
        <dc:title></dc:title>
      </cc:Work>
    </rdf:RDF>
  </metadata>
  <g
     id="layer1"
     transform="translate(59.8568,-134.70968)">
    <rect
       id="rect4782"
       style="color:#000000;fill:none"
       transform="matrix(0,1,-1,0,0,0)"
       height="96"
       width="96"
       y="-28.143"
       x="78.504997" />
    <path
       id="path4328"
       style="fill:#257dd2;fill-opacity:1;enable-background:new"
       d="m 5.8573,134.71 c -5.8175,4e-5 -10.893,3.199 -13.611,7.9503 l -43.802,-2e-5 c -4.5991,9e-5 -8.3012,3.5444 -8.3011,7.9468 0,4.4026 3.7021,7.947 8.3011,7.947 l 43.802,-9e-5 c 2.7176,4.7515 7.7934,7.9514 13.611,7.9508 6.3365,7e-5 11.798,-3.8109 14.286,-9.2736 l -11.666,-2e-5 1.025e-4,-13.248 11.6659995,1e-5 c -2.4874,-5.4625 -7.9492,-9.2734 -14.2859995,-9.2735 z m -57.747,12.792 a 3.0703,3.1053 0 0 1 3.0705,3.1052 3.0703,3.1053 0 0 1 -3.0705,3.1055 3.0703,3.1053 0 0 1 -3.0705,-3.1055 3.0703,3.1053 0 0 1 3.0705,-3.1052 z"
       inkscape:connector-curvature="0" />
  </g>
</svg>
